<?xml version="1.0" encoding="utf-8"?>
<!-- Generator: Adobe Illustrator 12.0.0, SVG Export Plug-In . SVG Version: 6.00 Build 51448)  -->
<!DOCTYPE svg PUBLIC "-//W3C//DTD SVG 1.1//EN" "http://www.w3.org/Graphics/SVG/1.1/DTD/svg11.dtd" [
	<!ENTITY ns_svg "http://www.w3.org/2000/svg">
	<!ENTITY ns_xlink "http://www.w3.org/1999/xlink">
]>
<svg  version="1.1" id="Layer_1" xmlns="&ns_svg;" xmlns:xlink="&ns_xlink;" width="389.333" height="482.667"
	 viewBox="0 0 389.333 482.667" overflow="visible" enable-background="new 0 0 389.333 482.667" xml:space="preserve">
<g>
	<rect x="15.172" y="11.501" fill="#22559E" width="359.796" height="359.747"/>
	<rect x="105.167" y="252.426" fill="#FFFFFF" width="180.005" height="29.207"/>
	<polyline fill="#FFFFFF" points="194.418,101.792 224.831,101.792 239.713,200.688 254.926,101.792 285.007,101.792 
		285.007,236.916 264.963,236.916 264.963,135.154 248.069,236.916 230.748,236.916 214.446,135.154 214.446,236.718 
		194.418,236.718 194.418,101.792 	"/>
	<path fill="#FFFFFF" d="M152.735,144.697h20.554v-9.543c0-9.347,0-36.163-34.383-36.163c-33.624,0-33.624,30.625-33.624,36.163
		c0,2.95,0,64.858,0,70.231c0,20.504,7.5,33.938,26.932,34.069c11.49,0.017,19.5-7.17,21.197-9.906v7.17l19.878,0.197v-73.215
		H140.95v16.252h11.785c0,0,0,18.938,0,21.395c0,10.846-3.395,18.229-13.499,18.229c-10.121,0-13.335-7.862-13.335-18.229
		c0-6.428,0-62.188,0-66.193c0-5.374,0-17.637,13.335-17.637c13.499,0,13.499,12.461,13.499,17.637
		C152.735,139.653,152.735,144.697,152.735,144.697"/>
	<path fill="#DF002C" d="M374.968,440.113l-6.988-4.979l5.241-12.559l-14.175,2.076l-3.28-6.84l-10.714,12.559
		c0,0-1.399,1.55-0.956-0.642l4.468-26.405l-7.994,3.808l-9.083-13.517l-9.18,13.517l-7.928-3.808l4.45,26.405
		c0.444,2.191-0.973,0.642-0.973,0.642l-10.697-12.559l-3.28,6.84l-14.208-2.076l5.241,12.559l-6.972,4.979l22.91,19.795
		l-1.17,7.977l17.158-2.274c2.67-0.081,2.886,2.274,2.886,2.274l0.163,3.281h3.149l0.18-3.281c0,0,0.232-2.355,2.919-2.274
		l17.075,2.274l-1.137-7.977L374.968,440.113"/>
	<path fill="#656A6E" d="M63.021,416.345c-3.262-1.088-8.158-2.308-13.978-2.308c-14.009,0-22.069,10.729-24.575,23.949
		c-0.527,2.687-0.808,5.109-0.808,7.334c0,10.187,5.439,15.905,17.176,15.905c4.185,0,10.63-1.253,14.915-3.329l-1.515,7.813
		c-4.632,1.681-10.632,2.851-16.813,2.851c-16.268,0-23.059-8.505-23.059-21.097c0-2.687,0.346-5.473,0.89-8.374
		c3.495-18.444,15.395-32.206,36.048-32.206c4.712,0,9.115,0.725,13.268,1.681L63.021,416.345"/>
	<path fill="#656A6E" d="M99.448,437.987l-5.521,29.85h-7.878c0.542-2.869,1.268-5.803,1.978-8.671
		c-3.495,5.802-9.922,9.479-16.729,9.479c-5.886,0-10.517-3.132-10.517-9.479c0-0.708,0.082-1.499,0.166-2.225
		c2.274-12.971,19.037-15.642,29.767-15.642c0.346-1.961,0.873-3.939,0.873-5.917c0-5.241-3.742-6.428-8.291-6.428
		c-4.566,0-9.922,1.516-13.944,3.609l1.352-7.187c4.894-1.682,10.004-2.835,15.181-2.835c7.598,0,14.026,2.308,14.026,10.878
		C99.909,434.954,99.76,436.486,99.448,437.987 M68.79,457.188c0,3.413,2.605,5.093,5.853,5.093c7.482,0,13.3-7.384,14.718-14.108
		l0.264-1.252C83.196,446.92,68.79,447.925,68.79,457.188z"/>
	<path fill="#656A6E" d="M147.213,436.898l-5.916,30.938h-8.126l5.455-28.498c0.297-1.27,0.462-2.522,0.462-3.874
		c0-4.071-2.061-6.313-6.347-6.313c-8.868,0-14.306,9.658-15.756,17.24l-4.105,21.444h-8.059l8.504-44.602h7.763
		c-0.592,3.049-1.318,6.064-2.042,9.114c3.773-5.983,10.021-9.988,17.173-9.988c6.972,0,11.439,3.181,11.439,10.417
		C147.658,434.228,147.493,435.563,147.213,436.898"/>
	<path fill="#656A6E" d="M190.102,437.987l-5.489,29.85h-7.88c0.527-2.869,1.236-5.803,1.946-8.671
		c-3.478,5.802-9.906,9.479-16.714,9.479c-5.884,0-10.548-3.132-10.548-9.479c0-0.708,0.083-1.499,0.199-2.225
		c2.241-12.971,19.037-15.642,29.75-15.642c0.362-1.961,0.89-3.939,0.89-5.917c0-5.241-3.741-6.428-8.324-6.428
		c-4.532,0-9.889,1.516-13.911,3.609l1.335-7.187c4.911-1.682,10.021-2.835,15.181-2.835c7.614,0,14.025,2.308,14.025,10.878
		C190.562,434.954,190.366,436.486,190.102,437.987 M159.477,457.188c0,3.413,2.605,5.093,5.819,5.093
		c7.5,0,13.3-7.384,14.735-14.108l0.264-1.252C173.85,446.92,159.477,447.925,159.477,457.188z"/>
	<path fill="#656A6E" d="M230.714,467.836h-7.797c0.626-2.869,1.271-5.637,1.978-8.489c-3.576,5.803-9.807,9.297-16.631,9.297
		c-8.933,0-13.021-5.539-13.021-14.126c0-2.324,0.199-4.631,0.71-6.89c2.885-14.637,11.966-24.921,27.525-24.921
		c2.587,0,5.094,0.329,7.599,0.89l4.005-21.196h8.06L230.714,467.836 M221.961,429.053c-10.828,0-15.56,8.208-17.438,17.867
		c-0.362,1.961-0.626,3.938-0.626,5.917c0,5.158,1.879,9.099,7.598,9.099c8.736,0,14.127-9.561,15.543-17.158l2.687-14.39
		C227.68,429.482,224.188,429.053,221.961,429.053z"/>
	<path fill="#656A6E" d="M279.651,437.987l-5.572,29.85h-7.861c0.527-2.869,1.236-5.803,1.961-8.671
		c-3.493,5.802-9.923,9.479-16.713,9.479c-5.901,0-10.549-3.132-10.549-9.479c0-0.708,0.099-1.499,0.181-2.225
		c2.243-12.971,19.037-15.642,29.784-15.642c0.33-1.961,0.874-3.939,0.874-5.917c0-5.241-3.758-6.428-8.307-6.428
		c-4.583,0-9.939,1.516-13.944,3.609l1.335-7.187c4.928-1.682,10.021-2.835,15.195-2.835c7.6,0,14.045,2.308,14.045,10.878
		C280.08,434.954,279.88,436.486,279.651,437.987 M248.944,457.188c0,3.413,2.604,5.093,5.834,5.093
		c7.516,0,13.302-7.384,14.752-14.108l0.264-1.252C263.365,446.92,248.944,447.925,248.944,457.188z"/>
</g>
</svg>
